<svg id="Layer_1" enable-background="new 0 0 50 50" height="512" viewBox="0 0 50 50" width="512" xmlns="http://www.w3.org/2000/svg" xmlns:xlink="http://www.w3.org/1999/xlink"><linearGradient id="XMLID_2_" gradientUnits="userSpaceOnUse" x1="24.584" x2="25.251" y1="50.605" y2="9.515"><stop offset=".00000053836" stop-color="#ffcb46"/><stop offset="1" stop-color="#fcb63a"/></linearGradient><linearGradient id="lg1"><stop offset=".00000009742" stop-color="#8a59a4"/><stop offset=".5269" stop-color="#6b7fbe"/><stop offset=".957" stop-color="#6b7fbe"/></linearGradient><linearGradient id="SVGID_2_" gradientUnits="userSpaceOnUse" x1="11.51" x2="38.797" xlink:href="#lg1" y1="32.639" y2="32.639"/><linearGradient id="SVGID_3_" gradientUnits="userSpaceOnUse" x1="26.765" x2="26.765" xlink:href="#lg1" y1="19.744" y2="42.116"/><g><path id="XMLID_53_" d="m49 24.994c0 14.2141-12.3723 25.2508-26.2 23.9-12.22-1.1101-21.8-11.39-21.8-23.9 0-13.25 10.75-24 24-24 13.3371 0 24 10.834 24 24z" fill="url(#XMLID_2_)"/><path d="m25 .9939c-13.25 0-24 10.75-24 24 0 12.51 9.58 22.79 21.8 23.9001 13.8277 1.3507 26.2-9.686 26.2-23.9001 0-13.166-10.6629-24-24-24z" fill="url(#XMLID_2_)"/><g><path d="m40.5484 21.3331v18.0396c0 1.4012-1.1209 2.5222-2.5221 2.5222h-25.746c-1.4011 0-2.5221-1.1209-2.5221-2.5222v-18.0396z" fill="#3b3e42"/><path d="m38.7969 25.1337v14.2389c0 .4203-.3328.7707-.7706.7707h-25.746c-.4379 0-.7706-.3504-.7706-.7707v-14.2389z" fill="url(#SVGID_2_)"/><path d="m38.7969 25.1337v14.2389c0 .4203-.3328.7707-.7706.7707h-25.746c-.4379 0-.7706-.3504-.7706-.7707v-14.2389z" fill="#fff" opacity=".1"/><path d="m38.7969 26.272v13.1006c0 .4203-.3328.7707-.7706.7707h-23.294c2.522-6.813 16.551-13.2757 24.0646-13.8713z" fill="url(#SVGID_3_)"/><g><path d="m40.0998 11.9145-.3185-1.74c-.2523-1.3781-1.5567-2.2791-2.935-2.0268l-25.3252 4.6356c-.8614.1577-1.5406.7271-1.8687 1.464-.1859.4435-.2526.9543-.158 1.471l.2639 5.6149h30.7901v-4.2912h-28.4782.0168z" fill="#3b3e42"/><g><g fill="#fff"><path d="m20.4253 15.5157-2.4291.4446-4.9935-3.4484 2.4463-.4478z"/><path d="m20.5645 17.042-4.3084 4.2911h-2.4696l4.3086-4.2911z"/><path d="m34.3801 12.9614-4.9935-3.4484 2.4463-.4478 4.9935 3.4484z"/><path d="m37.2382 17.042-4.3086 4.2911h-2.487l4.3086-4.2911z"/><path d="m28.6259 14.0147-2.4291.4446-4.9936-3.4484 2.4292-.4446z"/><path d="m28.9013 17.042-4.3085 4.2911h-2.4695l4.3086-4.2911z"/></g></g><path d="m13.5413 17.042c.0526.3853-.07.8058-.3677 1.1036l-3.4153 3.1875-.2639-5.6149c-.0946-.5167-.0279-1.0275.158-1.471l3.4884 2.4239c.0611.0423.1223.0845.1693.147l-1.2231.2239h-.0168z" fill="#2c2f33"/><g fill="#fff"><path d="m11.5985 16.4491c.0473.2585-.1216.503-.3628.5472-.2585.0473-.503-.1216-.5503-.38-.0441-.241.1247-.4858.3832-.5331.2411-.0443.4857.1248.5299.3659z"/><path d="m11.6323 18.3098c0 .2628-.2102.4729-.4554.4729-.2628 0-.4729-.2102-.4729-.4729 0-.245.2102-.4554.4729-.4554.2453 0 .4554.2104.4554.4554z"/></g></g></g><g fill="#fff"><path d="m14.7596 6.2514c1.3383 0 2.4169 1.0836 2.4169 2.4169 0-1.3359 1.0809-2.4169 2.4149-2.4169-1.329 0-2.4149-1.0767-2.4149-2.4169.0001 1.3343-1.0849 2.4169-2.4169 2.4169z"/><path d="m26.9551 5.1565c.539 0 .9735.4365.9735.9735 0-.5381.4354-.9735.9727-.9735-.5353 0-.9727-.4337-.9727-.9735 0 .5374-.437.9735-.9735.9735z"/><path d="m42.2146 17.0042c.8772 0 1.5842.7103 1.5842 1.5842 0-.8757.7085-1.5842 1.5829-1.5842-.8711 0-1.5829-.7057-1.5829-1.5842 0 .8746-.7111 1.5842-1.5842 1.5842z"/><path d="m44.4933 25.7293c1.0275 0 1.8556.8319 1.8556 1.8556 0-1.0257.8299-1.8556 1.8541-1.8556-1.0204 0-1.8541-.8266-1.8541-1.8556 0 1.0244-.833 1.8556-1.8556 1.8556z"/><path d="m3.5683 20.0968c.8237 0 1.4877.667 1.4877 1.4877 0-.8223.6653-1.4877 1.4864-1.4877-.818 0-1.4864-.6627-1.4864-1.4877 0 .8214-.6678 1.4877-1.4877 1.4877z"/><path d="m5.0554 29.9835c.9776 0 1.7656.7916 1.7656 1.7656 0-.9759.7896-1.7656 1.7641-1.7656-.9709 0-1.7641-.7865-1.7641-1.7656 0 .9748-.7926 1.7656-1.7656 1.7656z"/></g></g></svg>