<svg height="512pt" viewBox="-11 0 512 512.00024" width="512pt" xmlns="http://www.w3.org/2000/svg"><path d="m490 267c0 135.308594-109.691406 245-245 245s-245-109.691406-245-245 109.691406-245 245-245 245 109.691406 245 245zm0 0" fill="#52bbef"/><path d="m99.347656 464c40.714844 30.15625 91.09375 48 145.652344 48 54.554688 0 104.933594-17.84375 145.648438-48zm0 0" fill="#db722c"/><path d="m340.039062 134.875v13.664062h2.253907c3.632812 0 6.761719 2.167969 8.183593 5.269532h9.292969v-110.808594c0-2.75-2.25-5-5-5h-9.730469c-2.75 0-5 2.25-5 5v49.589844c4.722657 3.914062 8.113282 9.367187 9.394532 15.613281 2.070312 10.082031-1.660156 20.277344-9.394532 26.671875zm0 0" fill="#445ea0"/><path d="m340.039062 134.875v13.664062h2.253907c3.464843 0 6.46875 1.96875 7.972656 4.839844v-110.378906c0-2.664062 2.121094-4.839844 4.753906-4.976562-.085937-.003907-.164062-.023438-.25-.023438h-9.730469c-2.75 0-5 2.25-5 5v49.589844c4.722657 3.914062 8.113282 9.367187 9.394532 15.613281 2.070312 10.082031-1.660156 20.277344-9.394532 26.671875zm0 0" fill="#2e4c89"/><path d="m351.292969 157.539062v7.460938c0 .492188-.050781.972656-.125 1.441406h59.167969v-8.632812c0-2.75-2.25-5-5-5h-55.398438c.855469 1.378906 1.355469 2.992187 1.355469 4.730468zm0 0" fill="#c3ddf4"/><path d="m295.6875 423.484375h113.1875l22.203125-227.273437h-99.890625zm0 0" fill="#159e97"/><path d="m295.6875 423.484375h26.449219l-10.175781-104.160156zm0 0" fill="#0f9390"/><path d="m301.371094 387.109375 123.085937-123.082031 5.78125-59.164063-118.984375 118.980469zm0 0" fill="#60d882"/><path d="m317.050781 371.429688-4.75-48.628907-1.046875 1.046875-9.882812 63.261719zm0 0" fill="#37c47a"/><path d="m342.292969 174h-7.636719l-3.625 23.210938h107.082031c2.75 0 3.957031-1.996094 2.683594-4.433594l-11.972656-22.902344c-1.273438-2.4375-4.566407-4.429688-7.316407-4.429688h-70.238281c-.230469 4.753907-4.164062 8.554688-8.976562 8.554688zm0 0" fill="#fff"/><path d="m295.6875 423.484375h113.1875l1.382812-14.144531h-112.359374zm0 0" fill="#37c47a"/><path d="m297.898438 409.339844-2.210938 14.144531h26.695312l-1.382812-14.144531zm0 0" fill="#2bb381"/><path d="m350.414062 108c-2.335937-11.378906-11.160156-19.761719-21.824218-22.097656-2.242188-9.140625-8.722656-16.210938-16.894532-19.554688 1.398438 8.453125-1.148437 17.4375-7.65625 23.945313-3.332031 3.335937-7.378906 5.703125-11.792968 6.96875.59375 2.464843.84375 4.957031.753906 7.40625 2.007812 1.085937 3.890625 2.421875 5.597656 4.003906l1.039063.199219c3.164062-1.21875 6.496093-1.835938 9.898437-1.835938 7.335938 0 14.234375 2.855469 19.417969 8.042969 5.191406 5.1875 8.046875 12.085937 8.046875 19.425781 0 1.316406-.09375 2.617188-.273438 3.898438 10.347657-5.957032 16.21875-18.0625 13.6875-30.402344zm0 0" fill="#ffe98d"/><path d="m304.746094 50.730469c-4.476563-4.476563-10.074219-7.148438-15.890625-8.019531-.871094-5.816407-3.539063-11.414063-8.019531-15.890626-11.121094-11.121093-29.148438-11.121093-40.269532 0-4.160156 4.160157-6.757812 9.292969-7.800781 14.664063.09375 0 .191406-.007813.289063-.007813 7.335937 0 14.234374 2.859376 19.421874 8.046876 7.417969 7.417968 9.742188 17.96875 6.898438 27.355468 2.011719-.464844 4.0625-.726562 6.136719-.726562 11.097656 0 21.042969 6.609375 25.339843 16.839844.722657 1.722656 1.257813 3.476562 1.617188 5.238281 4.496094-1.285157 8.738281-3.691407 12.277344-7.230469 11.121094-11.121094 11.121094-29.148438 0-40.269531zm0 0" fill="#ffd00d"/><path d="m143.710938 32.210938c.035156 0 .070312-.003907.105468-.003907 6.945313 0 13.570313 2.59375 18.65625 7.304688l1.039063.199219c3.164062-1.21875 6.492187-1.835938 9.898437-1.835938 7.335938 0 14.230469 2.855469 19.414063 8.039062.8125.808594 1.550781 1.660157 2.238281 2.539063 2.679688-.855469 5.503906-1.308594 8.398438-1.308594 3.40625 0 6.734374.617188 9.898437 1.835938l1.039063-.199219c1.304687-1.207031 2.707031-2.273438 4.195312-3.191406 4.578125-10.433594 2.605469-23.046875-5.933594-31.589844-8.214844-8.214844-20.199218-10.351562-30.382812-6.433594-11.167969-10.335937-28.605469-10.085937-39.460938.769532-4.523437 4.527343-7.199218 10.195312-8.042968 16.074218 3.617187 1.984375 6.628906 4.664063 8.9375 7.800782zm0 0" fill="#ffaf10"/><path d="m29.773438 149.597656c1.261718-.675781 2.699218-1.058594 4.226562-1.058594h20.644531c-2.8125-4.355468-4.40625-9.496093-4.40625-14.886718 0-15.148438 12.324219-27.476563 27.472657-27.476563.945312 0 1.882812.066407 2.8125.160157-1.207032-5.980469-.421876-12.394532 2.640624-18.214844-6.222656-3.117188-10.945312-8.371094-13.390624-14.878906-3.421876-1.050782-7.101563-1.46875-10.886719-1.125-15.292969 1.382812-26.65625 14.605468-25.875 29.804687-9.535157 5.308594-15.570313 15.882813-14.523438 27.449219.753907 8.363281 5.054688 15.554687 11.285157 20.226562zm0 0" fill="#ffd00d"/><path d="m197.136719 79.175781c.425781-.019531.855469-.03125 1.28125-.03125 5.125 0 10.027343 1.398438 14.289062 4.003907 2.902344-4.667969 7.21875-8.511719 12.65625-10.796876 3.394531-1.425781 6.96875-2.148437 10.617188-2.148437 7.035156 0 13.738281 2.664063 18.871093 7.492187l1.035157.207032c1.496093-.558594 3.027343-.980469 4.578125-1.273438 2.671875-9.578125.253906-20.277344-7.28125-27.8125-10.855469-10.855468-28.292969-11.109375-39.460938-.769531-6.195312-2.382813-13.050781-2.511719-19.324218-.410156 7.570312 8.964843 8.488281 21.667969 2.738281 31.539062zm0 0" fill="#ffe98d"/><path d="m217.835938 87.1875c5.863281 5.863281 8.511718 13.738281 7.957031 21.425781h.375c4.75-3.511719 10.390625-5.367187 16.3125-5.367187 6.75 0 12.933593 2.449218 17.722656 6.503906.109375-.113281.210937-.226562.320313-.335938 5.1875-5.1875 12.085937-8.042968 19.421874-8.042968 4.980469 0 9.796876 1.339844 14.003907 3.835937.234375-4.183593-.445313-8.480469-2.175781-12.601562-5.941407-14.152344-21.988282-20.984375-36.238282-15.636719-7.945312-7.484375-19.84375-10.035156-30.558594-5.539062-5.65625 2.375-10.136718 6.367187-13.144531 11.207031 2.171875 1.222656 4.195313 2.742187 6.003907 4.550781zm0 0" fill="#fff"/><path d="m269.953125 130.71875c0 5.855469-1.851563 11.46875-5.351563 16.226562v1.59375h69.699219c6.160157-10.863281 4.617188-24.910156-4.644531-34.167968-8.210938-8.214844-20.195312-10.355469-30.378906-6.433594-11.171875-10.339844-28.605469-10.085938-39.460938.769531-.132812.132813-.261718.273438-.390625.410157 6.402344 5.035156 10.527344 12.84375 10.527344 21.601562zm0 0" fill="#ffd00d"/><path d="m83.308594 87.839844c4.800781-8.890625 14.070312-14.414063 24.191406-14.414063 4.214844 0 8.277344.945313 12.082031 2.8125l1.050781-.105469c.253907-.199218.527344-.371093.789063-.558593-7.703125-10.789063-6.652344-25.691407 2.976563-35.324219 5.1875-5.1875 12.085937-8.042969 19.417968-8.042969.371094 0 .734375.011719 1.101563.027344-2.707031-3.902344-6.417969-7.1875-11.003907-9.398437-13.824218-6.671876-30.371093-1.167969-37.511718 12.273437-10.90625-.347656-21.515625 5.621094-26.566406 16.082031-6.769532 14.027344-1 30.859375 12.875 37.820313.1875-.394531.386718-.785157.597656-1.171875zm0 0" fill="#ffe98d"/><path d="m120.632812 76.132812c4.792969-3.703124 10.773438-5.742187 16.839844-5.742187 4.519532 0 9.019532 1.144531 13.023438 3.304687 1.761718.953126 3.371094 2.074219 4.832031 3.328126 4.074219-2.308594 8.691406-3.542969 13.5-3.542969 6.941406 0 13.566406 2.59375 18.652344 7.300781l1.039062.199219c3.128907-1.203125 6.417969-1.816407 9.78125-1.832031 6.011719-10.832032 4.425781-24.746094-4.769531-33.941407-8.210938-8.214843-20.195312-10.351562-30.382812-6.429687-11.167969-10.339844-28.601563-10.085938-39.457032.769531-9.964844 9.964844-10.992187 25.472656-3.09375 36.589844zm0 0" fill="#ffd00d"/><path d="m161.609375 110.929688c-.960937 1.777343-2.105469 3.410156-3.398437 4.90625 1.34375.863281 2.621093 1.84375 3.8125 2.945312l1.035156.199219c3.164062-1.21875 6.496094-1.835938 9.898437-1.835938 3.746094 0 7.375.75 10.722657 2.167969 4.339843-9.46875 13.90625-16.066406 24.984374-16.066406 5.921876 0 11.5625 1.855468 16.316407 5.367187h1.1875c.21875-.160156.449219-.300781.671875-.457031.417968-7.792969-2.34375-15.722656-8.292969-21.675781-8.214844-8.214844-20.199219-10.355469-30.382813-6.433594-9.34375-8.644531-23.066406-9.878906-33.65625-3.703125 10.242188 8.121094 13.527344 22.691406 7.101563 34.585938zm0 0" fill="#ffaf10"/><path d="m94.023438 111.546875h1.1875c4.753906-3.511719 10.394531-5.371094 16.3125-5.371094 7.648437 0 14.570312 3.144531 19.554687 8.199219 3.769531-1.890625 7.949219-2.894531 12.289063-2.894531 5.65625 0 11.101562 1.722656 15.679687 4.90625 1.289063-1.507813 2.457031-3.164063 3.441406-4.984375 7.476563-13.835938 2.320313-31.109375-11.515625-38.585938-10.21875-5.523437-22.316406-4.144531-30.953125 2.527344-13.660156-6.714844-30.296875-1.488281-37.59375 12.019531-3.246093 6.011719-4.105469 12.664063-2.910156 18.886719 5.261719.335938 10.246094 2.144531 14.507813 5.296875zm0 0" fill="#fff"/><path d="m117.601562 148.539062c-3.664062-9.78125-1.511718-21.152343 6.347657-29.015624 2.375-2.378907 5.117187-4.257813 8.09375-5.605469-5.183594-5.386719-12.453125-8.742188-20.515625-8.742188-6.332032 0-12.179688 2.070313-16.910156 5.566407-4.726563-3.496094-10.574219-5.566407-16.90625-5.566407-15.726563 0-28.472657 12.75-28.472657 28.476563 0 5.460937 1.554688 10.554687 4.21875 14.886718zm0 0" fill="#ffe98d"/><path d="m192.375 125.1875c5.191406 5.1875 8.046875 12.085938 8.046875 19.425781 0 1.324219-.097656 2.636719-.277344 3.925781h64.523438c3.925781-4.878906 6.285156-11.070312 6.285156-17.820312 0-15.726562-12.746094-28.472656-28.472656-28.472656-6.332031 0-12.179688 2.066406-16.910157 5.5625-4.726562-3.496094-10.574218-5.5625-16.90625-5.5625-11.523437 0-21.441406 6.847656-25.921874 16.691406 3.574218 1.363281 6.851562 3.46875 9.632812 6.25zm0 0" fill="#ffe98d"/><path d="m201.148438 148.539062c1.183593-8.535156-1.503907-17.496093-8.066407-24.058593-8.214843-8.214844-20.195312-10.355469-30.382812-6.433594-11.167969-10.335937-28.601563-10.085937-39.460938.769531-8.035156 8.039063-10.253906 19.683594-6.671875 29.722656zm0 0" fill="#ffd00d"/><path d="m296.699219 423.484375 38.972656-249.484375h-295.046875l38.96875 249.484375zm0 0" fill="#fe3745"/><path d="m96.851562 400.054688-35.308593-226.054688h-20.917969l35.308594 226.054688zm0 0" fill="#ea2a3d"/><path d="m261.464844 423.484375 26.316406-249.484375h-199.269531l26.320312 249.484375zm0 0" fill="#ffd00d"/><path d="m215.097656 423.484375 3.316406-85.5c-9.117187 4.582031-19.390624 7.175781-30.269531 7.175781-10.875 0-21.148437-2.59375-30.261719-7.171875l3.316407 85.496094zm0 0" fill="#ea2a3d"/><path d="m188.148438 209.851562c12.742187 0 24.667968 3.542969 34.855468 9.695313l1.765625-45.546875h-73.246093l1.765624 45.546875c10.1875-6.152344 22.117188-9.695313 34.859376-9.695313zm0 0" fill="#ea2a3d"/><path d="m296.699219 423.484375 3.660156-23.429687h-224.425781l3.660156 23.429687zm0 0" fill="#b7092b"/><path d="m100.953125 423.484375-4.101563-23.429687h-20.917968l3.660156 23.429687zm0 0" fill="#8e0728"/><path d="m256.804688 277.507812c0 37.914063-30.738282 68.652344-68.65625 68.652344-37.917969 0-68.65625-30.738281-68.65625-68.652344 0-37.917968 30.738281-68.65625 68.65625-68.65625 37.917968 0 68.65625 30.738282 68.65625 68.65625zm0 0" fill="#fff"/><path d="m139 277.507812c0-34.609374 25.609375-63.21875 58.90625-67.957031-3.1875-.453125-6.445312-.699219-9.757812-.699219-37.917969 0-68.65625 30.738282-68.65625 68.65625 0 37.914063 30.738281 68.652344 68.65625 68.652344 3.316406 0 6.570312-.246094 9.761718-.699218-33.300781-4.734376-58.910156-33.347657-58.910156-67.953126zm0 0" fill="#eef6ff"/><path d="m352.292969 165c0 5.5-4.5 10-10 10h-308.292969c-5.5 0-10-4.5-10-10v-7.460938c0-5.5 4.5-10 10-10h308.292969c5.5 0 10 4.5 10 10zm0 0" fill="#eef6ff"/><path d="m66 165v-7.460938c0-5.5 4.5-10 10-10h-42c-5.5 0-10 4.5-10 10v7.460938c0 5.5 4.5 10 10 10h42c-5.5 0-10-4.5-10-10zm0 0" fill="#d9eafc"/><path d="m226.085938 270.621094h-75.875c-4.144532 0-7.5-3.355469-7.5-7.5 0-4.140625 3.355468-7.5 7.5-7.5h75.875c4.140624 0 7.5 3.359375 7.5 7.5 0 4.144531-3.359376 7.5-7.5 7.5zm0 0" fill="#ef9614"/><path d="m212.070312 303.136719h-47.84375c-4.140624 0-7.5-3.359375-7.5-7.5 0-4.144531 3.359376-7.5 7.5-7.5h47.84375c4.140626 0 7.5 3.355469 7.5 7.5 0 4.140625-3.359374 7.5-7.5 7.5zm0 0" fill="#ef9614"/><path d="m462 460c0 2.75-2.25 5-5 5h-424c-2.75 0-5-2.25-5-5v-32.515625c0-2.75 2.25-5 5-5h424c2.75 0 5 2.25 5 5zm0 0" fill="#ef8318"/><path d="m78 460v-32.515625c0-2.75 2.25-5 5-5h-50c-2.75 0-5 2.25-5 5v32.515625c0 2.75 2.25 5 5 5h50c-2.75 0-5-2.25-5-5zm0 0" fill="#db722c"/></svg>