<svg id="Capa_1" enable-background="new 0 0 512 512" height="512" viewBox="0 0 512 512" width="512" xmlns="http://www.w3.org/2000/svg" xmlns:xlink="http://www.w3.org/1999/xlink"><linearGradient id="SVGID_1_" gradientUnits="userSpaceOnUse" x1="256" x2="256" y1="496" y2="16"><stop offset="0" stop-color="#009efd"/><stop offset="1" stop-color="#2af598"/></linearGradient><g><g><path d="m80 416h80v-40h-80zm100-240.066c18.259 24.311 47.324 40.066 80 40.066 55.141 0 100-44.86 100-100s-44.859-100-100-100c-32.676 0-61.741 15.755-80 40.066-18.259-24.311-47.324-40.066-80-40.066-55.141 0-100 44.86-100 100s44.859 100 100 100c32.676 0 61.741-15.755 80-40.066zm80-119.934c33.084 0 60 26.916 60 60s-26.916 60-60 60-60-26.916-60-60 26.916-60 60-60zm-160 120c-33.084 0-60-26.916-60-60s26.916-60 60-60 60 26.916 60 60-26.916 60-60 60zm160-40c11.046 0 20-8.954 20-20s-8.954-20-20-20-20 8.954-20 20 8.954 20 20 20zm147.639 160h-47.639v-20c0-33.084-26.916-60-60-60h-40-160-40c-33.084 0-60 26.916-60 60v160c0 33.084 26.916 60 60 60h240c33.084 0 60-26.916 60-60v-20h47.827l104.173 45.448v-213.229zm-87.639 140c0 11.028-8.972 20-20 20h-240c-11.028 0-20-8.972-20-20v-160c0-11.028 8.972-20 20-20h240c11.028 0 20 8.972 20 20zm72-60h-32v-40h32zm80 24.356-40-17.451v-54.065l40-18.314zm-372-304.356c-11.046 0-20 8.954-20 20s8.954 20 20 20 20-8.954 20-20-8.954-20-20-20z" fill="url(#SVGID_1_)"/></g></g></svg>